<mxfile host="app.diagrams.net" modified="2021-07-06T10:16:41.645Z" agent="5.0 (X11; Linux x86_64) AppleWebKit/537.36 (KHTML, like Gecko) Chrome/91.0.4472.114 Safari/537.36" etag="ogj7REzLtDDaGOkjqFW6" version="14.8.4" type="github">
  <diagram id="piDafpqhtRUU5qUU-vj8" name="Page-1">
    <mxGraphModel dx="1350" dy="774" grid="1" gridSize="10" guides="1" tooltips="1" connect="1" arrows="1" fold="1" page="1" pageScale="1" pageWidth="827" pageHeight="1169" math="0" shadow="0">
      <root>
        <mxCell id="0" />
        <mxCell id="1" parent="0" />
        <mxCell id="8962rQQDY3VNNf6We3Pp-1" value="" style="strokeWidth=1;shadow=0;dashed=0;align=center;html=1;shape=mxgraph.mockup.containers.browserWindow;rSize=0;strokeColor2=#008cff;strokeColor3=#c4c4c4;mainText=,;recursiveResize=0;strokeColor=#FFFFFF;fontColor=#FFFFFF;" parent="1" vertex="1">
          <mxGeometry x="10" y="10" width="1150" height="1330" as="geometry" />
        </mxCell>
        <mxCell id="8962rQQDY3VNNf6We3Pp-2" value="Page 1" style="strokeWidth=1;shadow=0;dashed=0;align=center;html=1;shape=mxgraph.mockup.containers.anchor;fontSize=17;fontColor=#666666;align=left;" parent="8962rQQDY3VNNf6We3Pp-1" vertex="1">
          <mxGeometry x="60" y="12" width="110" height="26" as="geometry" />
        </mxCell>
        <mxCell id="8962rQQDY3VNNf6We3Pp-3" value="https://www.example.com" style="strokeWidth=1;shadow=0;dashed=0;align=center;html=1;shape=mxgraph.mockup.containers.anchor;rSize=0;fontSize=17;fontColor=#666666;align=left;" parent="8962rQQDY3VNNf6We3Pp-1" vertex="1">
          <mxGeometry x="130" y="60" width="250" height="26" as="geometry" />
        </mxCell>
        <mxCell id="8962rQQDY3VNNf6We3Pp-35" value="" style="verticalLabelPosition=bottom;shadow=0;dashed=0;align=center;html=1;verticalAlign=top;strokeWidth=1;shape=mxgraph.mockup.markup.line;strokeColor=#999999;fillColor=#008CFF;fontSize=13;fontColor=#0066CC;" parent="8962rQQDY3VNNf6We3Pp-1" vertex="1">
          <mxGeometry y="1180" width="1150" height="20" as="geometry" />
        </mxCell>
        <mxCell id="GMZd6iOI4iexcXez8Cc0-13" value="" style="rounded=0;whiteSpace=wrap;html=1;" vertex="1" parent="8962rQQDY3VNNf6We3Pp-1">
          <mxGeometry x="130" y="730" width="820" height="420" as="geometry" />
        </mxCell>
        <mxCell id="GMZd6iOI4iexcXez8Cc0-30" value="" style="shape=image;html=1;verticalAlign=top;verticalLabelPosition=bottom;labelBackgroundColor=#ffffff;imageAspect=0;aspect=fixed;image=https://cdn4.iconfinder.com/data/icons/basic-ui-2-line/32/pencil-edit-write-draw-stationary-128.png" vertex="1" parent="8962rQQDY3VNNf6We3Pp-1">
          <mxGeometry x="810" y="750" width="30" height="30" as="geometry" />
        </mxCell>
        <mxCell id="GMZd6iOI4iexcXez8Cc0-31" value="" style="shape=image;html=1;verticalAlign=top;verticalLabelPosition=bottom;labelBackgroundColor=#ffffff;imageAspect=0;aspect=fixed;image=https://cdn0.iconfinder.com/data/icons/google-material-design-3-0/48/ic_save_48px-128.png" vertex="1" parent="8962rQQDY3VNNf6We3Pp-1">
          <mxGeometry x="800" y="1040" width="78" height="78" as="geometry" />
        </mxCell>
        <mxCell id="GMZd6iOI4iexcXez8Cc0-6" value="" style="rounded=0;whiteSpace=wrap;html=1;" vertex="1" parent="1">
          <mxGeometry x="140" y="260" width="820" height="460" as="geometry" />
        </mxCell>
        <mxCell id="GMZd6iOI4iexcXez8Cc0-7" value="" style="rounded=1;whiteSpace=wrap;html=1;" vertex="1" parent="1">
          <mxGeometry x="190" y="300" width="446" height="30" as="geometry" />
        </mxCell>
        <mxCell id="GMZd6iOI4iexcXez8Cc0-8" value="" style="shape=image;html=1;verticalAlign=top;verticalLabelPosition=bottom;labelBackgroundColor=#ffffff;imageAspect=0;aspect=fixed;image=https://cdn4.iconfinder.com/data/icons/wirecons-free-vector-icons/32/add-128.png" vertex="1" parent="1">
          <mxGeometry x="870" y="295" width="40" height="40" as="geometry" />
        </mxCell>
        <mxCell id="GMZd6iOI4iexcXez8Cc0-9" value="" style="rounded=0;whiteSpace=wrap;html=1;" vertex="1" parent="1">
          <mxGeometry x="180" y="390" width="750" height="60" as="geometry" />
        </mxCell>
        <mxCell id="GMZd6iOI4iexcXez8Cc0-10" value="" style="rounded=0;whiteSpace=wrap;html=1;" vertex="1" parent="1">
          <mxGeometry x="180" y="460" width="750" height="40" as="geometry" />
        </mxCell>
        <mxCell id="GMZd6iOI4iexcXez8Cc0-11" value="" style="rounded=0;whiteSpace=wrap;html=1;" vertex="1" parent="1">
          <mxGeometry x="180" y="520" width="750" height="40" as="geometry" />
        </mxCell>
        <mxCell id="GMZd6iOI4iexcXez8Cc0-12" value="" style="rounded=0;whiteSpace=wrap;html=1;" vertex="1" parent="1">
          <mxGeometry x="180" y="570" width="750" height="40" as="geometry" />
        </mxCell>
        <mxCell id="GMZd6iOI4iexcXez8Cc0-19" value="From" style="strokeWidth=1;shadow=0;dashed=0;align=center;html=1;shape=mxgraph.mockup.forms.anchor;align=right;spacingRight=2;fontColor=#666666;" vertex="1" parent="1">
          <mxGeometry x="214" y="790" width="50" height="18" as="geometry" />
        </mxCell>
        <mxCell id="GMZd6iOI4iexcXez8Cc0-20" value="john@jgraph.com" style="strokeWidth=1;shadow=0;dashed=0;align=center;html=1;shape=mxgraph.mockup.forms.rrect;fillColor=#ffffff;rSize=0;fontColor=#666666;align=left;spacingLeft=3;strokeColor=#999999;" vertex="1" parent="1">
          <mxGeometry x="264" y="790" width="350" height="18" as="geometry" />
        </mxCell>
        <mxCell id="GMZd6iOI4iexcXez8Cc0-21" value="Subject" style="strokeWidth=1;shadow=0;dashed=0;align=center;html=1;shape=mxgraph.mockup.forms.anchor;align=right;spacingRight=2;fontColor=#666666;" vertex="1" parent="1">
          <mxGeometry x="214" y="825" width="50" height="18" as="geometry" />
        </mxCell>
        <mxCell id="GMZd6iOI4iexcXez8Cc0-22" value="Greeting" style="strokeWidth=1;shadow=0;dashed=0;align=center;html=1;shape=mxgraph.mockup.forms.rrect;fillColor=#ffffff;rSize=0;fontColor=#666666;align=left;spacingLeft=3;strokeColor=#999999;" vertex="1" parent="1">
          <mxGeometry x="264" y="825" width="350" height="18" as="geometry" />
        </mxCell>
        <mxCell id="GMZd6iOI4iexcXez8Cc0-23" value="To" style="strokeWidth=1;shadow=0;dashed=0;align=center;html=1;shape=mxgraph.mockup.forms.anchor;align=right;spacingRight=2;fontColor=#666666;" vertex="1" parent="1">
          <mxGeometry x="214" y="860" width="50" height="18" as="geometry" />
        </mxCell>
        <mxCell id="GMZd6iOI4iexcXez8Cc0-24" value="fred@jgraph.com" style="strokeWidth=1;shadow=0;dashed=0;align=center;html=1;shape=mxgraph.mockup.forms.rrect;fillColor=#ffffff;rSize=0;fontColor=#666666;align=left;spacingLeft=3;strokeColor=#999999;" vertex="1" parent="1">
          <mxGeometry x="264" y="860" width="350" height="18" as="geometry" />
        </mxCell>
        <mxCell id="GMZd6iOI4iexcXez8Cc0-25" value="CC" style="strokeWidth=1;shadow=0;dashed=0;align=center;html=1;shape=mxgraph.mockup.forms.anchor;align=right;spacingRight=2;fontColor=#666666;" vertex="1" parent="1">
          <mxGeometry x="214" y="895" width="50" height="18" as="geometry" />
        </mxCell>
        <mxCell id="GMZd6iOI4iexcXez8Cc0-26" value="" style="strokeWidth=1;shadow=0;dashed=0;align=center;html=1;shape=mxgraph.mockup.forms.rrect;fillColor=#ffffff;rSize=0;fontColor=#666666;align=left;spacingLeft=3;strokeColor=#999999;" vertex="1" parent="1">
          <mxGeometry x="264" y="895" width="350" height="18" as="geometry" />
        </mxCell>
        <mxCell id="GMZd6iOI4iexcXez8Cc0-27" value="BCC" style="strokeWidth=1;shadow=0;dashed=0;align=center;html=1;shape=mxgraph.mockup.forms.anchor;align=right;spacingRight=2;fontColor=#666666;" vertex="1" parent="1">
          <mxGeometry x="214" y="930" width="50" height="18" as="geometry" />
        </mxCell>
        <mxCell id="GMZd6iOI4iexcXez8Cc0-28" value="" style="strokeWidth=1;shadow=0;dashed=0;align=center;html=1;shape=mxgraph.mockup.forms.rrect;fillColor=#ffffff;rSize=0;fontColor=#666666;align=left;spacingLeft=3;strokeColor=#999999;" vertex="1" parent="1">
          <mxGeometry x="264" y="930" width="350" height="18" as="geometry" />
        </mxCell>
        <mxCell id="GMZd6iOI4iexcXez8Cc0-29" value="Lorem ipsum dolor sit amet, consectetur adipisicing elit, sed do eiusmod tempor incididunt ut labore et dolore magna aliqua. Ut enim ad minim veniam, quis nostrud exercitation ullamco laboris nisi ut aliquip ex ea commodo consequat. Duis aute irure dolor in reprehenderit in voluptate velit esse cillum dolore eu fugiat nulla pariatur. Excepteur sint occaecat cupidatat non proident, sunt in culpa qui officia deserunt mollit anim id est laborum." style="strokeWidth=1;shadow=0;dashed=0;align=center;html=1;shape=mxgraph.mockup.forms.rrect;fillColor=#ffffff;rSize=0;fontColor=#666666;align=left;spacingLeft=3;strokeColor=#999999;verticalAlign=top;whiteSpace=wrap;" vertex="1" parent="1">
          <mxGeometry x="214" y="965" width="400" height="125" as="geometry" />
        </mxCell>
      </root>
    </mxGraphModel>
  </diagram>
</mxfile>
